<svg width="46" height="46" viewBox="0 0 46 46" fill="none" xmlns="http://www.w3.org/2000/svg">
<rect width="46" height="46" rx="8" fill="white"/>
<path d="M25.8984 25.9766C26.3555 26.3984 26.3555 27.1367 25.8984 27.5586C25.6875 27.7695 25.4062 27.875 25.125 27.875C24.8086 27.875 24.5273 27.7695 24.3164 27.5586L20.625 23.8672L16.8984 27.5586C16.6875 27.7695 16.4062 27.875 16.125 27.875C15.8086 27.875 15.5273 27.7695 15.3164 27.5586C14.8594 27.1367 14.8594 26.3984 15.3164 25.9766L19.0078 22.25L15.3164 18.5586C14.8594 18.1367 14.8594 17.3984 15.3164 16.9766C15.7383 16.5195 16.4766 16.5195 16.8984 16.9766L20.625 20.668L24.3164 16.9766C24.7383 16.5195 25.4766 16.5195 25.8984 16.9766C26.3555 17.3984 26.3555 18.1367 25.8984 18.5586L22.207 22.2852L25.8984 25.9766Z" fill="#2C2C2C"/>
</svg>
